<?xml version="1.0" encoding="utf-8"?>
<!-- Generator: Adobe Illustrator 28.3.0, SVG Export Plug-In . SVG Version: 6.00 Build 0)  -->
<svg version="1.1" id="FLXGROOVE" xmlns="http://www.w3.org/2000/svg" xmlns:xlink="http://www.w3.org/1999/xlink" x="0px" y="0px"
	 viewBox="0 0 1772.6 629.7" style="enable-background:new 0 0 1772.6 629.7;" xml:space="preserve">
<style type="text/css">
	.st0{fill:#FFFFFF;}
	.st1{fill:#FFFFFF;stroke:#000000;stroke-width:4;stroke-miterlimit:10;}
</style>
<g id="GROOVE">
	<g id="E">
		<polygon class="st0" points="1551.4,499.8 1551.4,230.4 1764.7,230.4 1764.7,281.9 1626.4,281.9 1626.4,333.6 1754.7,333.6 
			1754.7,382.4 1626.4,382.4 1626.4,444.8 1768.7,444.8 1768.7,499.8 		"/>
		<path d="M1760.8,234.3V278h-138.3v59.5h128.3v41.1h-128.3v70.1h142.3v47.3h-209.5V234.3H1760.8 M1768.5,226.6h-220.9v277.1h225
			v-62.8h-142.3v-54.6h128.3v-56.5h-128.3v-44h138.3V226.6L1768.5,226.6L1768.5,226.6z"/>
	</g>
	<g id="V">
		<polygon class="st0" points="1343.2,500 1245.2,230.4 1323.1,230.4 1386.1,439.6 1448.2,230.4 1523.6,230.4 1427.2,500 		"/>
		<path d="M1518.1,234.3l-93.6,261.8h-78.6l-95.2-261.8h69.5l58.4,194l7.4,24.7l7.4-24.8l57.7-194L1518.1,234.3 M1529.1,226.6h-83.7
			L1386,426.1l-60.1-199.5h-86.2l100.8,277.3h89.4L1529.1,226.6L1529.1,226.6L1529.1,226.6z"/>
	</g>
	<g id="TT">
		<rect id="tt-chassis" x="875" y="226.6" class="st1" width="341.9" height="401.1"/>
		<circle id="tt-platter" cx="1046" cy="397.4" r="148"/>
		<path class="st0" d="M1156.8,496.7l-101.8,0.4c0,0-2.5,0-6.6-1.6s-41.9-21.8-41.9-21.8l2.5-4.1c0,0,0.8-6.6-3.7-9
			s-43.1-25.9-43.1-25.9s-8.2-2.5-10.7,2.5c-2.5,4.9-3.7,6.1-3.7,6.1l-6.2-4.5c0,0-4.1-1.6-6.6,1.6s-2.9,6,0,8.1s7.4,5,7.4,5
			l-3.3,5.7c0,0-4.1,4.9,2,8.6s44.3,27.1,44.3,27.1s7.4,2,9.4-2.9c2-4.9,2.5-6.1,2.5-6.1l43.9,25c0,0,6.2,3.7,15.2,3.3
			c9-0.4,82.4,0,82.4,0L1156.8,496.7L1156.8,496.7L1156.8,496.7z"/>
		<path id="tt-label" class="st0" d="M1105.9,399c0-33.3-27-60.3-60.3-60.3s-60.3,27-60.3,60.3s27,60.3,60.3,60.3
			C1078.9,459.3,1105.9,432.3,1105.9,399z M1002,399c0-24,19.5-43.5,43.5-43.5c24,0,43.5,19.5,43.5,43.5s-19.5,43.5-43.5,43.5
			S1002,423,1002,399L1002,399L1002,399z"/>
		<rect x="897.8" y="577.6" width="172.1" height="22.8"/>
	</g>
	<g id="CDJ">
		<rect id="cdj-chassis" x="513.1" y="225.5" class="st1" width="337.1" height="402.2"/>
		<circle id="cdj-platter" cx="682.2" cy="396.9" r="144"/>
		<path class="st0" d="M681.9,267.7c-72.1,0-130.5,58.4-130.5,130.5s58.4,130.5,130.5,130.5s130.5-58.4,130.5-130.5
			S754,267.7,681.9,267.7L681.9,267.7z M682.7,516.5c-64.9,0-117.5-52.6-117.5-117.5s52.6-117.5,117.5-117.5S800.2,334,800.2,398.9
			S747.6,516.5,682.7,516.5z"/>
		<rect id="cdj-btn1" x="542" y="563.7" width="57.1" height="49.1"/>
		<rect id="cdj-btn2" x="612.9" y="564.9" width="57.1" height="49.1"/>
		<rect id="cdj-btn3" x="681.2" y="564.9" width="57.1" height="49.1"/>
		<rect id="cdj-btn4" x="750.8" y="564.9" width="57.1" height="49.1"/>
		<path class="st0" d="M678.9,339.1c-32.4,0-58.7,26.3-58.7,58.7s26.3,58.7,58.7,58.7s58.7-26.3,58.7-58.7S711.3,339.1,678.9,339.1z
			"/>
	</g>
	<g id="R">
		<path class="st0" d="M414.5,500l-37.4-82.4c-5.1-11.6-9.7-19.1-14-22.8c-6-4.9-12.8-7.4-20.2-7.4h-10.4V500h-64.2V230.6h115.8
			c21.6,0,38.3,2.2,49.5,6.5c10.8,4.2,19.7,12.1,26.4,23.6c6.8,11.6,10.2,26.1,10.2,42.9c0,14.7-2.6,27.5-7.8,38.1
			c-5.2,10.5-12.4,19.2-21.5,25.7c-5.7,4.1-13.8,7.6-24,10.4l-11.6,3.1l11.1,4.4c8.1,3.2,14,6.4,17.6,9.5c1.6,1.4,4.8,4.9,10.8,13.8
			c4.9,7.2,8.1,12.8,9.7,16.5l32.4,74.9H414.5L414.5,500z M332.5,343h34.3c3.7,0,10.2-1.3,20-3.9c5.8-1.4,10.5-4.9,14-10.4
			c3.4-5.3,5.2-11.5,5.2-18.3c0-10-2.8-17.9-8.3-23.5c-5.6-5.6-15.3-8.4-29.7-8.4h-35.6L332.5,343L332.5,343L332.5,343z"/>
		<path d="M384.1,234.6c21.1,0,37.3,2.1,48,6.3c10.1,3.9,18.1,11.1,24.4,21.8c6.4,11,9.7,24.8,9.7,40.9c0,14.1-2.5,26.3-7.4,36.3
			c-4.9,9.9-11.7,18.1-20.2,24.2c-5.3,3.8-13,7.1-22.7,9.8l-23.1,6.3l22.3,8.9c9.6,3.8,14.2,6.9,16.5,8.9c1.2,1,4,4,10.1,13
			c5.9,8.7,8.3,13.4,9.3,15.9l0,0l0,0l30,69.2h-63.9L380.8,416c-5.5-12.3-10.3-20-15.1-24.2l-0.1,0l-0.1,0
			c-6.6-5.5-14.3-8.3-22.7-8.3h-14.4V496h-56.2V234.6H384.1 M328.5,347h38.3c2.6,0,7.5-0.4,21-4c6.8-1.6,12.3-5.7,16.4-12.1
			c3.9-6,5.8-12.8,5.8-20.4c0-11.1-3.2-19.9-9.5-26.3c-6.4-6.4-17-9.5-32.5-9.5h-39.6L328.5,347 M384.1,226.6H264.3V504h72.2V391.4
			h6.4c6.6,0,12.4,2.1,17.6,6.4c3.8,3.3,8.1,10.4,13,21.4l38.4,84.8h81.2l-34.8-80.4c-1.7-4-5-9.8-10.1-17.2
			c-5-7.5-8.9-12.3-11.5-14.6c-3.9-3.4-10.1-6.8-18.7-10.2c10.7-2.9,19.1-6.6,25.2-11c9.6-6.9,17.2-16,22.7-27.2
			c5.5-11.2,8.3-24.4,8.3-39.8c0-17.7-3.6-32.6-10.8-45c-7.2-12.3-16.7-20.7-28.4-25.3S406.4,226.6,384.1,226.6L384.1,226.6
			L384.1,226.6L384.1,226.6z M336.5,339v-56.4h31.6c13.1,0,22.1,2.4,26.8,7.2c4.8,4.8,7.1,11.7,7.1,20.6c0,6.1-1.5,11.4-4.5,16.1
			c-3,4.7-6.9,7.6-11.7,8.7c-9.4,2.5-15.8,3.8-19,3.8L336.5,339L336.5,339z"/>
	</g>
	<g id="G">
		<path class="st0" d="M118.2,500c-25.8,0-47-5.3-63.2-15.6C39,474,26.3,458.2,17.4,437.6c-9-20.9-13.6-45.2-13.6-72.4
			c0-28.5,5-53.7,14.8-74.7c9.7-20.8,24.2-36.8,42.9-47.6c14.6-8.3,34.6-12.5,59.6-12.5s42.4,2.6,54.2,7.7
			c11.6,5.1,21.4,13,29.1,23.7c7.2,10,12.8,22.6,16.8,37.7l-59.6,12.7c-3.1-9.2-7.9-16.5-14.3-21.7c-7.3-5.9-16.6-8.9-27.7-8.9
			c-16.5,0-29.8,6.9-39.6,20.5c-9.5,13.2-14.3,34.1-14.3,62.1c0,30.1,4.7,51.2,14.5,64.5c9.9,13.4,23.8,20.2,41.4,20.2
			c8.2,0,16.1-1.4,23.6-4.3c7.3-2.8,15.8-7.6,25.1-14.2l1.6-1.2v-31.1h-46.5v-48h99.6v108.6c-19.6,15.7-37.1,26.6-52,32.3
			C157.8,497,139.4,500,118.2,500L118.2,500L118.2,500z"/>
		<path d="M121.2,234.3c23.7,0,41.4,2.5,52.6,7.4c11,4.8,20.2,12.3,27.5,22.4c6.3,8.7,11.3,19.6,15.1,32.5L164,307.8
			c-3.3-8.4-8.1-15.2-14.3-20.2c-8-6.5-18.1-9.8-30.1-9.8c-17.8,0-32.2,7.5-42.7,22.2c-10.1,14.1-15,35.2-15,64.4
			c0,31,5,52.8,15.2,66.8c10.6,14.5,25.6,21.8,44.5,21.8c8.7,0,17.1-1.5,25-4.5c7.6-2.9,16.4-7.8,26-14.6l3.3-2.3v-37h-46.5v-40.3
			h91.9V457c-18.6,14.9-35.3,25.1-49.5,30.6c-14.8,5.7-32.8,8.5-53.4,8.5c-25.1,0-45.6-5.1-61.1-15c-15.4-10-27.6-25.1-36.2-45
			c-8.8-20.4-13.2-44.2-13.2-70.8c0-28,4.9-52.6,14.5-73.1c9.4-20.1,23.3-35.5,41.3-45.8C77.5,238.4,96.9,234.3,121.2,234.3
			 M121.2,226.6c-25.8,0-46.3,4.3-61.5,13c-19.5,11.2-34.3,27.7-44.5,49.3C5.1,310.5,0,336,0,365.2s4.6,52.4,13.9,73.9
			s22.3,37.6,39.1,48.5c16.8,10.9,38.6,16.3,65.2,16.3c21.7,0,40.4-3,56.2-9c15.8-6,34-17.4,54.5-34.1V346.4H121.6v55.8h46.5v25.2
			c-9.1,6.5-17.2,11-24.2,13.7c-7.1,2.7-14.5,4-22.2,4c-16.4,0-29.1-6.2-38.3-18.6c-9.2-12.4-13.7-33.2-13.7-62.2
			c0-27.3,4.5-47.3,13.6-59.9c9-12.6,21.2-18.9,36.4-18.9c10.2,0,18.6,2.7,25.2,8s11.3,13.1,14,23.2l67-14.3
			c-4.1-17.3-10.2-31.6-18.3-42.9s-18.4-19.6-30.7-25S146,226.6,121.2,226.6L121.2,226.6L121.2,226.6L121.2,226.6L121.2,226.6z"/>
	</g>
</g>
<g id="sound">
	<path d="M1183.2,202.5c-2-23.9-11.9-67-53-110.9c-29.8-31.9-67.3-50.9-114.4-58V4.4c24.4,2.4,89.4,14.4,143.1,75.4
		c45,51.1,52.5,107,53.7,122.5c-1.5,0-3.4,0-5.4,0C1199.5,202.3,1188.8,202.4,1183.2,202.5L1183.2,202.5L1183.2,202.5z"/>
	<path class="st0" d="M1019.8,8.8c20,2.4,41.5,8.6,61.5,17.8c28.5,13.2,53.7,32,74.7,55.8c19.6,22.2,34.3,48.2,43.7,77.1
		c5.2,16.1,7.7,29.8,8.7,38.8h-1.1c-6.3,0-14.5,0.1-20.3,0.1c-2.7-25.1-13.8-67-53.7-109.7c-18.6-19.8-40.7-35.1-65.7-45.5
		c-9.6-4-24.7-9.5-47.6-13.2L1019.8,8.8 M1011.8,0v37c26.8,3.7,74.8,13.9,115.5,57.3c40.7,43.4,50.8,86.8,52.2,112.3
		c0,0,16.6-0.2,27.7-0.2c5.5,0,9.7,0.1,9.7,0.2c0-13.4-7.4-75.3-54.9-129.4C1114.4,23.1,1053.4,2.8,1011.8,0L1011.8,0z
		 M1216.9,206.5L1216.9,206.5z"/>
	<path d="M1124.4,202.5c-1-14.1-5.1-45.3-31.7-73.7c-25.7-27.5-58-33.1-76.9-35.8V68.9c29.1,3.2,70.5,19.8,97.4,50.3
		c27.6,31.3,33.2,70.5,34.3,83.2h-3.8C1137.6,202.4,1129.2,202.5,1124.4,202.5L1124.4,202.5L1124.4,202.5z"/>
	<path class="st0" d="M1019.8,73.4c28,4.2,65.6,20.2,90.4,48.4c15.4,17.5,23.6,37.8,27.7,51.8c2.9,9.9,4.5,18.6,5.2,24.7
		c-4.7,0-10.5,0-15.1,0.1c-1.5-15.8-7-45.3-32.4-72.4c-25-26.7-56.8-33.6-75.8-36.5L1019.8,73.4 M1011.8,64.5v32
		c17.4,2.4,51.6,6.8,78,35s29.9,58.5,30.8,75c0,0,13.9-0.1,23.1-0.1c4.6,0,8.1,0,8.1,0.1c0-8.7-4.7-54.9-35.6-89.9
		C1085.4,81.5,1038.8,66.3,1011.8,64.5C1011.8,64.5,1011.8,64.5,1011.8,64.5z M1151.8,206.5L1151.8,206.5z"/>
	<path d="M1069.1,202.5c-2.6-9.6-10.7-23-19.4-31.8c-10.9-10.9-25.7-17.9-33.8-20.3V127c15.7,2.3,36.7,11.8,52,29.2
		c13.7,15.5,21.2,34.5,20.5,43.9c-0.1,1.1-0.2,1.9-0.5,2.4h-4.2C1079,202.5,1072.8,202.5,1069.1,202.5L1069.1,202.5L1069.1,202.5z"
		/>
	<path class="st0" d="M1019.8,131.8c14.2,3.2,31.8,12.1,45,27c7.1,8,12.9,17.5,16.5,26.8c2.3,5.9,3,10.2,3.1,12.9h-0.7
		c-3.6,0-8.1,0-11.7,0c-3.4-9.9-11.1-22.1-19.5-30.6c-10-10-23.4-17.1-32.7-20.4L1019.8,131.8 M1011.8,122.5v31c6,1,23,8,35,20
		c10,10,18,25,19,33c0,0,10.7-0.1,17.8-0.1c3.6,0,6.2,0,6.2,0.1c6.9-6-1-32.4-19.1-53S1027.7,123.6,1011.8,122.5L1011.8,122.5
		L1011.8,122.5z"/>
</g>
<g id="FLX">
	<g id="F">
		<polygon points="195.2,202.1 195.2,4.5 432.8,4.5 432.8,40.7 287,40.7 287,84.6 411.6,84.6 411.6,118.1 287,118.1 287,202.1 		"/>
		<path class="st0" d="M428.8,8.5v28.2H283v51.9h124.6v25.5H283v84h-83.8V8.5H428.8 M436.8,0.5H191.2v205.6H291v-84h124.6V80.6H291
			V44.7h145.8L436.8,0.5L436.8,0.5L436.8,0.5z"/>
	</g>
	<g id="L">
		<polygon points="461.8,202.1 461.8,4.5 533.2,4.5 533.2,159.5 657,159.5 657,202.1 		"/>
		<path class="st0" d="M529.2,8.5v155H653v34.6H465.8V8.5H529.2 M537.2,0.5h-79.3v205.6H661v-50.6H537.2V0.5L537.2,0.5z"/>
	</g>
	<g id="X">
		<polygon points="889.3,202.1 829.3,134 769.3,202.1 678.8,202.1 776.6,99 687.9,4.5 777.1,4.5 831.2,70.1 883.8,4.5 972.1,4.5 
			884,100.1 980.5,202.1 		"/>
		<path class="st0" d="M962.9,8.5l-79.4,86.2l-5.1,5.5l5.1,5.4l87.6,92.5h-80.1l-55.8-63.4l-6-6.8l-6,6.8l-55.8,63.4H688l88.8-93.7
			l5.2-5.5l-5.2-5.5l-79.8-85h78L825,68.8l6.3,7.6l6.2-7.7l48.3-60.3L962.9,8.5 M981.2,0.5h-99.3l-50.8,63.2L779,0.5H678.7L771.1,99
			L669.4,206.1h101.7l58.2-66.1l58.2,66.1h102.3l-100.4-106L981.2,0.5L981.2,0.5L981.2,0.5z"/>
	</g>
</g>
</svg>
